<svg width="54" height="40" viewBox="0 0 54 40" fill="none" xmlns="http://www.w3.org/2000/svg">
<g clip-path="url(#clip0_502_2)">
<path fill-rule="evenodd" clip-rule="evenodd" d="M0 0H53.3333V40H0V0Z" fill="#229E45"/>
<path fill-rule="evenodd" clip-rule="evenodd" d="M26.7833 36.3334L51.9083 20.025L26.6333 3.66669L1.425 20.0584L26.7833 36.3334Z" fill="#F8E509"/>
<path fill-rule="evenodd" clip-rule="evenodd" d="M37.7333 20C37.7333 25.8583 32.975 30.6083 27.1 30.6083C25.0006 30.605 22.9493 29.9794 21.2054 28.8104C19.4615 27.6415 18.1033 25.9817 17.3026 24.041C16.5018 22.1003 16.2944 19.9657 16.7067 17.9072C17.1189 15.8486 18.1321 13.9585 19.6184 12.4757C21.1047 10.993 22.9972 9.98413 25.0567 9.57677C27.1162 9.16942 29.2503 9.38182 31.1891 10.1871C33.1279 10.9925 34.7845 12.3545 35.9493 14.1012C37.1141 15.8478 37.735 17.9006 37.7333 20V20Z" fill="#2B49A3"/>
<path fill-rule="evenodd" clip-rule="evenodd" d="M23.6083 26.3584L23.275 26.1667L22.9417 26.3334L23.0167 25.9584L22.75 25.675L23.125 25.6334L23.3083 25.3L23.4667 25.65L23.8333 25.7167L23.5583 25.9667M30.725 28.1584L30.4 27.9667L30.0667 28.1334L30.1333 27.7584L29.875 27.4834L30.25 27.4417L30.425 27.1L30.5917 27.45L30.9583 27.5167L30.675 27.775M27.6583 25.275L27.375 25.1084L27.0833 25.2584L27.15 24.9334L26.9167 24.6917L27.25 24.6584L27.4 24.3584L27.5333 24.6667L27.8583 24.725L27.6083 24.95M34.8583 24.2417L34.575 24.075L34.2833 24.225L34.35 23.9L34.125 23.6667L34.45 23.6334L34.6 23.3417L34.7333 23.6417L35.05 23.7L34.8083 23.9167M27.5333 22.0834L27.2 21.9L26.8667 22.0667L26.9333 21.6834L26.675 21.4084L27.05 21.3667L27.225 21.025L27.3917 21.375L27.7583 21.4417L27.475 21.7084M18.7583 18.7917L18.425 18.6084L18.0917 18.775L18.175 18.3917L17.9 18.1167L18.2833 18.075L18.45 17.7334L18.6167 18.0834L18.9833 18.15L18.7083 18.4084M19.8167 23.175L19.4833 22.9834L19.15 23.15L19.225 22.775L18.9583 22.5L19.3333 22.45L19.5083 22.1167L19.675 22.4667L20.0417 22.5334L19.7667 22.7917M30.7667 17.1834L30.4667 17.0167L30.1667 17.1667L30.2333 16.8334L30 16.5834L30.3333 16.5417L30.4917 16.2417L30.6333 16.5584L30.9667 16.6167L30.7167 16.8417M30.1583 20.0334L29.9333 19.9L29.6917 20.0167L29.7417 19.75L29.5583 19.5584L29.825 19.525L29.95 19.2917L30.0583 19.5417L30.3083 19.5834L30.125 19.7667M18.275 23.9667L18.05 23.8417L17.825 23.95L17.875 23.7L17.7 23.5167L17.95 23.4834L18.0667 23.2584L18.175 23.4917L18.425 23.5417L18.2333 23.7084M34.9167 24.9834L34.7333 24.8917L34.55 24.975L34.5917 24.7834L34.45 24.65L34.65 24.625L34.75 24.4584L34.8333 24.625L35.0417 24.6667L34.8833 24.7917" fill="#FFFFEF"/>
<path fill-rule="evenodd" clip-rule="evenodd" d="M18.275 23.9666L18.05 23.8416L17.825 23.95L17.875 23.7L17.7 23.5166L17.95 23.4833L18.0667 23.2583L18.175 23.4916L18.425 23.5416L18.2333 23.7083" fill="#FFFFEF"/>
<path fill-rule="evenodd" clip-rule="evenodd" d="M18.275 23.9667L18.05 23.8417L17.825 23.95L17.875 23.7L17.7 23.5167L17.95 23.4834L18.0667 23.2584L18.175 23.4917L18.425 23.5417L18.2333 23.7084M21.7583 23.9584L21.5417 23.8417L21.3167 23.95L21.3667 23.7L21.1917 23.5167L21.4417 23.4834L21.5583 23.2584L21.6667 23.4917L21.9167 23.5334L21.725 23.7084M21.325 25.125L21.1083 25L20.8833 25.1167L20.9333 24.8667L20.7583 24.675L21.0083 24.6417L21.125 24.4167L21.2333 24.65L21.4833 24.7L21.2917 24.8667M28.575 23.0167L28.3583 22.8834L28.125 23L28.175 22.75L28.0083 22.5584L28.2583 22.5334L28.375 22.3084L28.475 22.5417L28.725 22.5834L28.5417 22.7584M26.45 23.0084L26.225 22.8834L26 23L26.05 22.75L25.8833 22.5584L26.1333 22.5334L26.25 22.3L26.35 22.5417L26.6 22.5834L26.4167 22.7584M20.6833 22.275L20.5417 22.1917L20.4 22.2584L20.4333 22.1L20.325 21.9834L20.4833 21.9667L20.55 21.825L20.6167 21.975L20.775 22L20.6583 22.1084M34.6417 25.8917L34.425 25.7667L34.2 25.8834L34.25 25.6334L34.075 25.4417L34.325 25.4084L34.4417 25.1834L34.55 25.4167L34.8 25.4667L34.6083 25.6334M32.875 26.1334L32.6917 26.0167L32.5 26.1167L32.5417 25.9L32.4 25.75L32.6083 25.725L32.7083 25.5334L32.7917 25.7334L33 25.7667L32.8417 25.9167M33.7083 26.1084L33.5417 26.0084L33.3667 26.0917L33.4 25.9L33.2667 25.7584L33.4583 25.7334L33.55 25.5667L33.6333 25.7334L33.825 25.775L33.6833 25.9084M36.1083 24.0084L35.9417 23.925L35.775 24.0084L35.8167 23.8167L35.6833 23.675L35.875 23.65L35.9583 23.4834L36.0417 23.6584L36.2167 23.6917L36.0833 23.825M32.85 27.3084L32.6417 27.1917L32.4167 27.2917L32.4667 27.0584L32.3 26.8917L32.55 26.8667L32.6583 26.6584L32.7583 26.875L33.0083 26.9167L32.8167 27.075M32.8667 28.2584L32.6667 28.1417L32.4667 28.25L32.5167 28.0167L32.3583 27.85L32.5833 27.8167L32.6833 27.6084L32.775 27.825L33 27.8667L32.8333 28.0334M31.25 26.1084L31.0917 26.0084L30.925 26.0917L30.9583 25.9084L30.8333 25.7667L31.0167 25.75L31.1 25.5834L31.1833 25.75L31.3667 25.7834L31.2333 25.9167M29.75 26.1084L29.5833 26.0084L29.4167 26.0917L29.4583 25.9084L29.325 25.7667L29.5167 25.75L29.6 25.5834L29.6833 25.75L29.8583 25.7834L29.725 25.9167M27.1917 23.8667L27.025 23.775L26.8583 23.8584L26.9 23.6667L26.7667 23.5334L26.95 23.5084L27.0333 23.3417L27.1167 23.5084L27.3 23.55L27.1667 23.675M27.475 28.425L27.3417 28.35L27.1917 28.425L27.225 28.2584L27.1167 28.1417L27.275 28.125L27.35 27.9834L27.4167 28.1334L27.575 28.1584L27.4583 28.2667M23.6083 21.05L23.275 20.8584L22.9417 21.025L23.0167 20.65L22.75 20.375L23.125 20.325L23.3083 19.9917L23.4667 20.3417L23.8333 20.4084L23.5583 20.6667" fill="#FFFFEF"/>
<path fill-rule="evenodd" clip-rule="evenodd" d="M37.0333 23.8167C37.2398 23.281 37.4014 22.7291 37.5167 22.1667C31.8667 17.2083 25.575 14.6667 17.625 15.1917C17.3367 15.7496 17.0996 16.3325 16.9167 16.9333C26.3333 16.0333 33.25 20.2 37.0333 23.8167Z" fill="white"/>
<path d="M34.5 21.0333L34.6917 21.1417C34.663 21.1983 34.6542 21.2628 34.6667 21.325C34.6862 21.3853 34.7279 21.4359 34.7833 21.4667C34.8417 21.5083 34.9 21.5333 34.95 21.525C35 21.525 35.0333 21.5 35.0583 21.4667C35.0729 21.4445 35.0788 21.4179 35.075 21.3917C35.0682 21.3609 35.0539 21.3323 35.0333 21.3083C35.0167 21.2833 34.975 21.225 34.9083 21.1583C34.8398 21.0876 34.7885 21.0021 34.7583 20.9083C34.7375 20.8374 34.7429 20.7613 34.7735 20.694C34.8041 20.6267 34.8579 20.5727 34.925 20.5417C34.9856 20.5164 35.0526 20.5105 35.1167 20.525C35.195 20.543 35.2688 20.5771 35.3333 20.625C35.45 20.7083 35.525 20.7917 35.55 20.8917C35.5615 20.9384 35.563 20.9871 35.5544 21.0345C35.5458 21.0819 35.5272 21.1269 35.5 21.1667L35.3 21.0417C35.325 20.9917 35.3333 20.9417 35.3167 20.9C35.3083 20.8583 35.275 20.8167 35.2167 20.7833C35.1739 20.7489 35.1215 20.7285 35.0667 20.725C35.0516 20.7245 35.0366 20.7281 35.0234 20.7354C35.0102 20.7428 34.9992 20.7536 34.9917 20.7667C34.975 20.7917 34.975 20.8167 34.9833 20.85C34.9917 20.8833 35.0333 20.95 35.1167 21.0333C35.2 21.1167 35.25 21.1917 35.2833 21.2417C35.3131 21.2963 35.3266 21.3583 35.3221 21.4203C35.3177 21.4824 35.2956 21.5418 35.2583 21.5917C35.2193 21.6483 35.1642 21.6919 35.1 21.7167C35.0375 21.7454 34.9676 21.7542 34.9 21.7417C34.825 21.725 34.75 21.6917 34.6667 21.6333C34.5417 21.55 34.4667 21.4583 34.4417 21.3583C34.4145 21.2449 34.4324 21.1254 34.4917 21.025L34.5 21.0333ZM33.5333 20.4L33.7417 20.5083C33.7159 20.5659 33.71 20.6304 33.725 20.6917C33.7463 20.7489 33.7878 20.7963 33.8417 20.825C33.9083 20.8667 33.9583 20.8833 34.0083 20.875C34.0583 20.875 34.0917 20.85 34.1167 20.8083C34.1293 20.7885 34.1352 20.7651 34.1333 20.7417C34.1333 20.7167 34.1167 20.6833 34.0917 20.6583C34.049 20.6068 34.0045 20.5568 33.9583 20.5083C33.8667 20.4167 33.8083 20.3417 33.7917 20.275C33.778 20.2321 33.774 20.1868 33.7797 20.1421C33.7855 20.0975 33.8009 20.0547 33.825 20.0167C33.8567 19.9652 33.9032 19.9246 33.9583 19.9C34.0156 19.8736 34.0794 19.8649 34.1417 19.875C34.2187 19.888 34.2924 19.9163 34.3583 19.9583C34.4833 20.0417 34.5583 20.125 34.5833 20.2167C34.5985 20.2635 34.6034 20.3131 34.5977 20.362C34.5919 20.4109 34.5756 20.458 34.55 20.5L34.3417 20.3833C34.3667 20.325 34.375 20.2833 34.3583 20.2417C34.3417 20.2 34.3083 20.1583 34.25 20.125C34.2039 20.0919 34.1484 20.0744 34.0917 20.075C34.078 20.0759 34.0647 20.0802 34.0531 20.0875C34.0415 20.0947 34.0318 20.1048 34.025 20.1167C34.0083 20.1417 34.0083 20.1667 34.0167 20.2C34.025 20.2333 34.075 20.3 34.1583 20.3833C34.2417 20.4667 34.3 20.5333 34.325 20.5833C34.3584 20.6356 34.3761 20.6963 34.3761 20.7583C34.3761 20.8204 34.3584 20.8811 34.325 20.9333C34.2891 20.9915 34.2369 21.0378 34.175 21.0667C34.1125 21.0954 34.0426 21.1042 33.975 21.0917C33.8892 21.0772 33.8071 21.046 33.7333 21C33.6256 20.9426 33.5426 20.8477 33.5 20.7333C33.4678 20.6221 33.4797 20.5027 33.5333 20.4V20.4ZM32.35 20.0833L32.9583 19.0833L33.6917 19.5417L33.5917 19.7083L33.0583 19.375L32.925 19.6L33.425 19.9083L33.3167 20.075L32.8167 19.7667L32.65 20.0417L33.2083 20.375L33.1083 20.5417L32.3583 20.0833H32.35ZM30.625 18.6667L30.7167 18.5L31.1667 18.725L30.9583 19.1417C30.8917 19.1583 30.8083 19.1667 30.7083 19.1583C30.6123 19.1477 30.5191 19.1195 30.4333 19.075C30.3325 19.0259 30.2463 18.9512 30.1833 18.8583C30.126 18.7721 30.0969 18.6702 30.1 18.5667C30.1042 18.4589 30.1327 18.3535 30.1833 18.2583C30.2334 18.1581 30.3079 18.0721 30.4 18.0083C30.4881 17.9474 30.5929 17.9154 30.7 17.9167C30.7833 17.9167 30.8667 17.9417 30.9667 18C31.1 18.0583 31.1833 18.1417 31.225 18.2333C31.2683 18.3243 31.2772 18.428 31.25 18.525L31.025 18.4583C31.0388 18.4025 31.0329 18.3437 31.0083 18.2917C30.9833 18.2417 30.9417 18.2083 30.875 18.175C30.8361 18.1528 30.793 18.1391 30.7485 18.1348C30.704 18.1305 30.659 18.1357 30.6167 18.15C30.5333 18.175 30.4583 18.25 30.4 18.3667C30.3417 18.4833 30.3167 18.5917 30.3417 18.6833C30.3532 18.7268 30.3741 18.7672 30.4029 18.8018C30.4316 18.8363 30.4676 18.8642 30.5083 18.8833C30.55 18.9083 30.6 18.925 30.65 18.925C30.6997 18.9325 30.7503 18.9325 30.8 18.925L30.8667 18.7917L30.625 18.6667V18.6667ZM23.1083 16.8083L23.275 15.6417L23.625 15.7L23.7167 16.5167L24.0417 15.7667L24.3917 15.8167L24.225 16.9667L24 16.9333L24.1417 16.025L23.775 16.9L23.55 16.8667L23.4583 15.925L23.325 16.8417L23.1083 16.8083V16.8083ZM21.9333 16.6667L22.0417 15.5L22.9 15.5833L22.8833 15.7833L22.2583 15.725L22.2333 15.975L22.8167 16.0333L22.7917 16.2333L22.2083 16.175L22.1833 16.4917L22.8333 16.55L22.8167 16.75L21.9333 16.6667V16.6667Z" fill="#309E3A"/>
<path d="M18.0417 15.9417C18.0417 15.8167 18.0667 15.725 18.1 15.6417C18.1292 15.5824 18.1687 15.5288 18.2167 15.4833C18.2594 15.4402 18.3104 15.4062 18.3667 15.3833C18.45 15.3583 18.5333 15.3417 18.6167 15.3417C18.7917 15.3417 18.925 15.4083 19.0333 15.5083C19.0849 15.572 19.1232 15.6454 19.1461 15.7241C19.169 15.8028 19.176 15.8853 19.1667 15.9667C19.1667 16.15 19.1083 16.3 19 16.4083C18.9443 16.4598 18.8785 16.499 18.8067 16.5234C18.7349 16.5478 18.6588 16.5569 18.5833 16.55C18.5088 16.5508 18.435 16.5364 18.3662 16.5077C18.2975 16.4791 18.2352 16.4368 18.1833 16.3833C18.0796 16.2606 18.0287 16.1018 18.0417 15.9417V15.9417Z" fill="#309E3A"/>
<path d="M18.2833 15.9417C18.2833 16.0667 18.3083 16.1667 18.3667 16.2417C18.425 16.3083 18.5 16.35 18.6 16.35C18.6432 16.353 18.6866 16.3464 18.727 16.3305C18.7674 16.3146 18.8037 16.29 18.8333 16.2583C18.8917 16.1917 18.9167 16.0917 18.925 15.95C18.925 15.8167 18.9083 15.7167 18.8417 15.65C18.8145 15.6164 18.7802 15.5893 18.7413 15.5705C18.7024 15.5518 18.6598 15.5419 18.6167 15.5417C18.5728 15.5403 18.5292 15.5485 18.4889 15.5658C18.4486 15.583 18.4125 15.6089 18.3833 15.6417C18.3167 15.7083 18.2917 15.8083 18.2833 15.9417V15.9417Z" fill="#F7FFFF"/>
<path d="M19.4167 16.5417L19.4333 15.375H19.9333C20.0583 15.375 20.1417 15.3917 20.2 15.4167C20.2583 15.4333 20.3 15.475 20.3333 15.525C20.3667 15.575 20.3833 15.6417 20.3833 15.7167C20.384 15.7968 20.3542 15.8743 20.3 15.9333C20.2384 15.991 20.1591 16.0263 20.075 16.0333L20.2 16.1333C20.2333 16.1667 20.275 16.2333 20.325 16.325L20.4667 16.5583H20.1833L20.0167 16.2917L19.9 16.125C19.8798 16.1021 19.8539 16.0848 19.825 16.075C19.7871 16.0639 19.7478 16.0583 19.7083 16.0583H19.6583V16.5417H19.4167V16.5417Z" fill="#309E3A"/>
<path d="M19.6667 15.8751H19.8333C19.95 15.8751 20.025 15.8751 20.05 15.8584C20.075 15.8584 20.1 15.8334 20.1167 15.8167C20.1333 15.8001 20.1417 15.7584 20.1417 15.7334C20.1417 15.6834 20.1333 15.6501 20.1083 15.6334C20.0917 15.6084 20.0583 15.5917 20.025 15.5834H19.8583L19.6667 15.5751V15.8667V15.8751Z" fill="white"/>
<path d="M20.75 15.4333L21.1833 15.4583C21.275 15.4583 21.35 15.4667 21.4 15.4834C21.4649 15.5069 21.5224 15.5471 21.5667 15.6C21.6147 15.6583 21.6489 15.7267 21.6667 15.8C21.6917 15.875 21.7 15.9667 21.6917 16.075C21.6916 16.1601 21.6775 16.2445 21.65 16.325C21.6167 16.4083 21.5667 16.475 21.5083 16.525C21.4598 16.565 21.4028 16.5935 21.3417 16.6084C21.2917 16.625 21.2167 16.625 21.1333 16.625L20.6917 16.6L20.75 15.4333V15.4333Z" fill="#309E3A"/>
<path d="M20.975 15.6417L20.9333 16.4167H21.25C21.2917 16.4167 21.325 16.4001 21.35 16.3751C21.375 16.3501 21.4 16.3167 21.4167 16.2667C21.4333 16.2167 21.45 16.1417 21.45 16.0501L21.4417 15.8417C21.4298 15.7978 21.4068 15.7576 21.375 15.7251C21.3473 15.6972 21.3128 15.6771 21.275 15.6667C21.212 15.6527 21.1478 15.6443 21.0833 15.6417H20.975V15.6417Z" fill="white"/>
<path d="M26.4667 17.5166L26.7417 16.3833L27.1083 16.4666L27.375 16.55C27.4333 16.5833 27.4833 16.6333 27.5083 16.7083C27.5417 16.775 27.5417 16.85 27.525 16.9416C27.5083 17.0083 27.4833 17.0666 27.4417 17.1083C27.4111 17.1449 27.3729 17.1743 27.3297 17.1945C27.2865 17.2146 27.2393 17.225 27.1917 17.225C27.1333 17.225 27.05 17.2083 26.9417 17.1833L26.8 17.1416L26.7 17.575L26.4667 17.5166V17.5166Z" fill="#309E3A"/>
<path d="M26.9167 16.6333L26.85 16.95L26.975 16.9833C27.0583 17 27.125 17.0166 27.1583 17.0083C27.1908 17.0038 27.221 16.9894 27.2449 16.967C27.2687 16.9446 27.2851 16.9154 27.2917 16.8833C27.2917 16.8416 27.2917 16.8083 27.275 16.775C27.2567 16.7411 27.2273 16.7146 27.1917 16.7L27.0333 16.6583L26.925 16.6333H26.9167Z" fill="white"/>
<path d="M27.55 17.8417L27.9417 16.7417L28.4 16.9084C28.525 16.95 28.6 16.9917 28.65 17.025C28.6917 17.0667 28.725 17.1084 28.7333 17.175C28.7417 17.2417 28.75 17.3 28.7333 17.3667C28.7 17.45 28.65 17.5084 28.5833 17.55C28.5167 17.5834 28.4333 17.5917 28.3333 17.575C28.3667 17.6167 28.4 17.6584 28.4167 17.7084L28.4833 17.9334L28.5333 18.1917L28.275 18.1L28.1917 17.8C28.1765 17.7322 28.157 17.6654 28.1333 17.6C28.1223 17.5741 28.1051 17.5512 28.0833 17.5334C28.0667 17.5084 28.0333 17.4917 27.975 17.475L27.9333 17.4584L27.7667 17.925L27.55 17.8417V17.8417Z" fill="#309E3A"/>
<path d="M28 17.2834L28.1584 17.3417C28.2667 17.3834 28.3334 17.4 28.3667 17.4C28.3917 17.4 28.4167 17.4 28.4417 17.375C28.4667 17.3584 28.4834 17.3334 28.4917 17.3C28.5084 17.2667 28.5084 17.2334 28.4917 17.2C28.4794 17.1677 28.4556 17.1411 28.425 17.125L28.2584 17.0667L28.0917 17.0084L27.9917 17.2834H28Z" fill="white"/>
<path d="M28.9167 17.8C28.9453 17.7024 28.9935 17.6117 29.0583 17.5333C29.1005 17.483 29.1513 17.4407 29.2083 17.4083C29.26 17.3791 29.3164 17.3594 29.375 17.35C29.4583 17.35 29.5417 17.35 29.6333 17.3833C29.7078 17.4017 29.7775 17.4358 29.8379 17.4832C29.8982 17.5306 29.9478 17.5903 29.9833 17.6583C30.05 17.7916 30.05 17.95 30 18.1333C29.9588 18.2908 29.8569 18.4256 29.7167 18.5083C29.5917 18.5833 29.4417 18.5916 29.2833 18.5416C29.209 18.5227 29.1395 18.4885 29.0793 18.4411C29.019 18.3938 28.9693 18.3343 28.9333 18.2666C28.9 18.1938 28.8813 18.1151 28.8784 18.035C28.8756 17.9549 28.8886 17.875 28.9167 17.8V17.8Z" fill="#309E3A"/>
<path d="M29.15 17.8666C29.1167 17.9916 29.1083 18.1 29.15 18.1833C29.1917 18.2666 29.25 18.3166 29.3417 18.35C29.425 18.375 29.5083 18.3666 29.5917 18.3166C29.675 18.275 29.725 18.1833 29.7667 18.05C29.8083 17.925 29.8083 17.825 29.7667 17.7416C29.7502 17.7021 29.7253 17.6667 29.6936 17.6379C29.6619 17.609 29.6243 17.5876 29.5833 17.575C29.5423 17.5608 29.4988 17.5557 29.4556 17.56C29.4124 17.5643 29.3707 17.578 29.3333 17.6C29.25 17.65 29.1917 17.7333 29.15 17.8666V17.8666Z" fill="white"/>
<path d="M31.1917 19.425L31.725 18.3917L32.1667 18.6167C32.2499 18.6566 32.326 18.7101 32.3917 18.775C32.4333 18.8167 32.4583 18.8667 32.4583 18.9333C32.4583 19 32.4583 19.0583 32.425 19.1167C32.393 19.1916 32.3333 19.2513 32.2583 19.2833C32.175 19.3 32.0917 19.3 32 19.2667C32.0333 19.3167 32.05 19.3667 32.0667 19.4083C32.0833 19.4583 32.0917 19.5333 32.1 19.6417L32.1167 19.9083L31.8667 19.7833L31.8333 19.475C31.8294 19.4051 31.821 19.3355 31.8083 19.2667C31.8026 19.2355 31.7882 19.2066 31.7667 19.1833L31.6667 19.125L31.625 19.1L31.4 19.5333L31.1917 19.425V19.425Z" fill="#309E3A"/>
<path d="M31.7084 18.9333L31.8667 19.0166C31.9667 19.0666 32.0334 19.1 32.0584 19.1C32.0834 19.1 32.1167 19.1 32.1417 19.0833C32.1667 19.075 32.1834 19.05 32.2 19.0166C32.2167 18.9833 32.225 18.95 32.2167 18.9166C32.2064 18.8834 32.186 18.8543 32.1584 18.8333C32.1096 18.8034 32.0595 18.7756 32.0084 18.75L31.8417 18.6666L31.7084 18.9333V18.9333Z" fill="white"/>
<path d="M35.5083 21.5583C35.5623 21.4726 35.6332 21.3989 35.7167 21.3416C35.7727 21.3058 35.8349 21.2803 35.9 21.2666C35.9605 21.2543 36.0228 21.2543 36.0833 21.2666C36.1667 21.2833 36.2417 21.3166 36.3167 21.3666C36.3815 21.407 36.4372 21.4605 36.4803 21.5236C36.5233 21.5868 36.5528 21.6582 36.5667 21.7333C36.5917 21.875 36.55 22.0333 36.45 22.1916C36.3664 22.3294 36.2315 22.4283 36.075 22.4666C36.0004 22.4828 35.9232 22.4829 35.8485 22.4671C35.7739 22.4513 35.7034 22.4199 35.6417 22.375C35.5768 22.3346 35.5211 22.2811 35.478 22.218C35.435 22.1548 35.4056 22.0834 35.3917 22.0083C35.3667 21.8583 35.4083 21.7083 35.5083 21.5583Z" fill="#309E3A"/>
<path d="M35.7167 21.6917C35.6333 21.8 35.6083 21.9 35.625 21.9917C35.6311 22.0339 35.6462 22.0743 35.6692 22.1102C35.6922 22.1462 35.7226 22.1768 35.7583 22.2C35.8417 22.2583 35.925 22.275 36.0083 22.25C36.0917 22.225 36.175 22.1667 36.25 22.05C36.325 21.9333 36.3583 21.8333 36.3417 21.75C36.3333 21.6667 36.2833 21.5917 36.2083 21.5333C36.1333 21.475 36.0417 21.4667 35.9583 21.4917C35.875 21.5083 35.7917 21.575 35.7083 21.6917H35.7167Z" fill="white"/>
<path d="M25.15 17.0416L25.3417 16.225L25.9417 16.3666L25.9167 16.5L25.475 16.4L25.4333 16.5833L25.8417 16.675L25.8083 16.8166L25.4 16.7166L25.35 16.9416L25.8083 17.05L25.775 17.1833L25.15 17.0416V17.0416Z" fill="#309E3A"/>
</g>
<defs>
<clipPath id="clip0_502_2">
<rect width="53.3333" height="40" fill="white"/>
</clipPath>
</defs>
</svg>
