<svg width="54" height="40" viewBox="0 0 54 40" fill="none" xmlns="http://www.w3.org/2000/svg">
<g clip-path="url(#clip0_304_36987)">
<path d="M0.333344 0H53.6667V40H0.333344V0Z" fill="#EE1C25"/>
<path d="M6.7334 14.8L10.3334 4L13.9333 14.8L4.33344 8.2H16.3333L6.7334 14.8Z" fill="#FFFF00"/>
<path d="M22.3476 4.20693L18.6428 5.02794L21.114 2.14822L20.8716 6.02394L18.8157 2.59276L22.3476 4.20693Z" fill="#FFFF00"/>
<path d="M26.0866 8.94562L22.3534 8.26549L25.748 6.56962L24.0215 10.048L23.4572 6.08798L26.0866 8.94562Z" fill="#FFFF00"/>
<path d="M25.5417 15.5936L22.4105 13.45L26.2016 13.2862L23.2066 15.7579L24.3064 11.9121L25.5417 15.5936Z" fill="#FFFF00"/>
<path d="M20.8324 19.9368L18.7721 16.7501L22.3323 18.0632L18.615 19.1864L21.1149 16.0638L20.8324 19.9368Z" fill="#FFFF00"/>
</g>
<defs>
<clipPath id="clip0_304_36987">
<rect width="53.3333" height="40" fill="white" transform="translate(0.333344)"/>
</clipPath>
</defs>
</svg>
