<svg width="54" height="40" viewBox="0 0 54 40" fill="none" xmlns="http://www.w3.org/2000/svg">
<g clip-path="url(#clip0_502_733)">
<path d="M0 0H53.3333V13.3333H0V0Z" fill="#FF9933"/>
<path d="M0 13.3333H53.3333V26.6666H0V13.3333Z" fill="white"/>
<path d="M0 26.6666H53.3333V40H0V26.6666Z" fill="#128807"/>
<path d="M26.6667 25.3333C29.6122 25.3333 32 22.9455 32 20C32 17.0544 29.6122 14.6666 26.6667 14.6666C23.7212 14.6666 21.3334 17.0544 21.3334 20C21.3334 22.9455 23.7212 25.3333 26.6667 25.3333Z" fill="#000088"/>
<path d="M26.6666 24.6666C29.2439 24.6666 31.3333 22.5772 31.3333 19.9999C31.3333 17.4226 29.2439 15.3333 26.6666 15.3333C24.0893 15.3333 21.9999 17.4226 21.9999 19.9999C21.9999 22.5772 24.0893 24.6666 26.6666 24.6666Z" fill="white"/>
<path d="M26.6667 20.9333C27.1821 20.9333 27.6 20.5154 27.6 20C27.6 19.4845 27.1821 19.0667 26.6667 19.0667C26.1512 19.0667 25.7333 19.4845 25.7333 20C25.7333 20.5154 26.1512 20.9333 26.6667 20.9333Z" fill="#000088"/>
<path d="M31.2621 20.8489C31.3935 20.8662 31.5141 20.7737 31.5314 20.6423C31.5487 20.5109 31.4562 20.3903 31.3247 20.373C31.1933 20.3557 31.0728 20.4482 31.0555 20.5796C31.0382 20.711 31.1307 20.8316 31.2621 20.8489Z" fill="#000088"/>
<path d="M26.6667 24.6668L26.8267 21.8668L26.6667 20.5334L26.5067 21.8668L26.6667 24.6668Z" fill="#000088"/>
<path d="M30.8858 22.0093C31.0083 22.06 31.1487 22.0019 31.1994 21.8794C31.2501 21.757 31.192 21.6166 31.0695 21.5658C30.9471 21.5151 30.8067 21.5733 30.7559 21.6957C30.7052 21.8182 30.7634 21.9586 30.8858 22.0093Z" fill="#000088"/>
<path d="M25.4589 24.5077L26.3381 21.8445L26.5287 20.5152L26.0291 21.7617L25.4589 24.5077Z" fill="#000088"/>
<path d="M30.2221 23.0329C30.3272 23.1136 30.4779 23.0937 30.5586 22.9886C30.6392 22.8834 30.6194 22.7328 30.5143 22.6521C30.4091 22.5714 30.2584 22.5912 30.1777 22.6964C30.0971 22.8015 30.1169 22.9522 30.2221 23.0329Z" fill="#000088"/>
<path d="M24.3334 24.0417L25.8719 21.6968L26.4 20.4621L25.5948 21.5368L24.3334 24.0417Z" fill="#000088"/>
<path d="M29.3159 23.8497C29.3966 23.9548 29.5472 23.9747 29.6524 23.894C29.7576 23.8133 29.7774 23.6626 29.6967 23.5575C29.616 23.4523 29.4654 23.4325 29.3602 23.5132C29.255 23.5939 29.2352 23.7445 29.3159 23.8497Z" fill="#000088"/>
<path d="M23.3668 23.3L25.4599 21.4332L26.2895 20.3773L25.2336 21.207L23.3668 23.3Z" fill="#000088"/>
<path d="M28.2293 24.404C28.28 24.5264 28.4204 24.5846 28.5428 24.5338C28.6653 24.4831 28.7234 24.3427 28.6727 24.2203C28.622 24.0978 28.4816 24.0397 28.3591 24.0904C28.2367 24.1411 28.1785 24.2815 28.2293 24.404Z" fill="#000088"/>
<path d="M22.6252 22.3332L25.1301 21.0717L26.2048 20.2665L24.9701 20.7946L22.6252 22.3332Z" fill="#000088"/>
<path d="M27.0362 24.6583C27.0535 24.7897 27.1741 24.8822 27.3055 24.8649C27.4369 24.8476 27.5294 24.727 27.5121 24.5956C27.4948 24.4642 27.3742 24.3717 27.2428 24.389C27.1114 24.4063 27.0189 24.5269 27.0362 24.6583Z" fill="#000088"/>
<path d="M22.1591 21.2076L24.9051 20.6375L26.1516 20.1378L24.8223 20.3284L22.1591 21.2076Z" fill="#000088"/>
<path d="M25.8179 24.5952C25.8006 24.7266 25.8931 24.8472 26.0245 24.8645C26.1559 24.8818 26.2765 24.7893 26.2938 24.6579C26.3111 24.5265 26.2186 24.4059 26.0872 24.3886C25.9558 24.3713 25.8352 24.4638 25.8179 24.5952Z" fill="#000088"/>
<path d="M22 19.9998L24.8 20.1598L26.1333 19.9998L24.8 19.8398L22 19.9998Z" fill="#000088"/>
<path d="M24.6574 24.219C24.6067 24.3414 24.6648 24.4818 24.7873 24.5325C24.9097 24.5833 25.0501 24.5251 25.1008 24.4026C25.1516 24.2802 25.0934 24.1398 24.971 24.0891C24.8485 24.0383 24.7081 24.0965 24.6574 24.219Z" fill="#000088"/>
<path d="M22.159 18.792L24.8222 19.6713L26.1515 19.8618L24.905 19.3622L22.159 18.792Z" fill="#000088"/>
<path d="M23.6339 23.5553C23.5532 23.6605 23.5731 23.8111 23.6782 23.8918C23.7834 23.9725 23.934 23.9527 24.0147 23.8475C24.0954 23.7424 24.0756 23.5917 23.9704 23.511C23.8653 23.4303 23.7146 23.4501 23.6339 23.5553Z" fill="#000088"/>
<path d="M22.6253 17.6667L24.9702 19.2053L26.2049 19.7334L25.1302 18.9282L22.6253 17.6667Z" fill="#000088"/>
<path d="M22.8171 22.6493C22.7119 22.73 22.6921 22.8807 22.7728 22.9858C22.8535 23.091 23.0041 23.1108 23.1093 23.0301C23.2144 22.9494 23.2343 22.7988 23.1536 22.6936C23.0729 22.5885 22.9222 22.5686 22.8171 22.6493Z" fill="#000088"/>
<path d="M23.3668 16.7003L25.2336 18.7934L26.2895 19.623L25.4598 18.5671L23.3668 16.7003Z" fill="#000088"/>
<path d="M22.2626 21.5626C22.1402 21.6133 22.082 21.7537 22.1327 21.8761C22.1834 21.9986 22.3238 22.0568 22.4463 22.006C22.5688 21.9553 22.6269 21.8149 22.5762 21.6925C22.5255 21.57 22.3851 21.5118 22.2626 21.5626Z" fill="#000088"/>
<path d="M24.3334 15.9586L25.5948 18.4634L26.4001 19.5381L25.872 18.3034L24.3334 15.9586Z" fill="#000088"/>
<path d="M22.0082 20.3695C21.8768 20.3868 21.7843 20.5074 21.8016 20.6388C21.8189 20.7702 21.9395 20.8627 22.0709 20.8454C22.2023 20.8281 22.2948 20.7076 22.2775 20.5761C22.2602 20.4447 22.1397 20.3522 22.0082 20.3695Z" fill="#000088"/>
<path d="M25.4589 15.4924L26.029 18.2384L26.5287 19.4849L26.3381 18.1556L25.4589 15.4924Z" fill="#000088"/>
<path d="M22.0713 19.1513C21.9399 19.134 21.8194 19.2266 21.8021 19.358C21.7848 19.4894 21.8773 19.6099 22.0087 19.6272C22.1401 19.6445 22.2607 19.552 22.278 19.4206C22.2953 19.2892 22.2028 19.1687 22.0713 19.1513Z" fill="#000088"/>
<path d="M26.6667 15.3335L26.5067 18.1335L26.6667 19.4668L26.8267 18.1335L26.6667 15.3335Z" fill="#000088"/>
<path d="M22.4476 17.9911C22.3252 17.9403 22.1848 17.9985 22.134 18.1209C22.0833 18.2434 22.1415 18.3838 22.2639 18.4345C22.3864 18.4852 22.5268 18.4271 22.5775 18.3046C22.6282 18.1822 22.5701 18.0418 22.4476 17.9911Z" fill="#000088"/>
<path d="M27.8745 15.4926L26.9953 18.1558L26.8047 19.4851L27.3044 18.2386L27.8745 15.4926Z" fill="#000088"/>
<path d="M23.1113 16.9674C23.0062 16.8867 22.8555 16.9065 22.7748 17.0117C22.6941 17.1168 22.714 17.2675 22.8191 17.3482C22.9243 17.4289 23.0749 17.409 23.1556 17.3039C23.2363 17.1987 23.2165 17.048 23.1113 16.9674Z" fill="#000088"/>
<path d="M29 15.9587L27.4614 18.3036L26.9333 19.5383L27.7386 18.4636L29 15.9587Z" fill="#000088"/>
<path d="M24.0175 16.1506C23.9368 16.0454 23.7861 16.0256 23.681 16.1063C23.5758 16.187 23.556 16.3376 23.6367 16.4428C23.7174 16.5479 23.868 16.5678 23.9732 16.4871C24.0783 16.4064 24.0982 16.2557 24.0175 16.1506Z" fill="#000088"/>
<path d="M29.9666 16.7004L27.8735 18.5671L27.0438 19.6231L28.0998 18.7934L29.9666 16.7004Z" fill="#000088"/>
<path d="M25.1041 15.5959C25.0534 15.4735 24.913 15.4153 24.7905 15.466C24.6681 15.5168 24.6099 15.6572 24.6607 15.7796C24.7114 15.9021 24.8518 15.9602 24.9742 15.9095C25.0967 15.8588 25.1548 15.7184 25.1041 15.5959Z" fill="#000088"/>
<path d="M30.7081 17.6666L28.2033 18.928L27.1286 19.7333L28.3633 19.2052L30.7081 17.6666Z" fill="#000088"/>
<path d="M26.2972 15.3416C26.2799 15.2102 26.1593 15.1177 26.0279 15.135C25.8965 15.1523 25.804 15.2729 25.8213 15.4043C25.8386 15.5357 25.9591 15.6282 26.0905 15.6109C26.222 15.5936 26.3145 15.473 26.2972 15.3416Z" fill="#000088"/>
<path d="M31.1743 18.7923L28.4283 19.3624L27.1818 19.8621L28.5111 19.6715L31.1743 18.7923Z" fill="#000088"/>
<path d="M27.5155 15.4045C27.5328 15.2731 27.4403 15.1526 27.3088 15.1353C27.1774 15.118 27.0569 15.2105 27.0396 15.3419C27.0223 15.4733 27.1148 15.5939 27.2462 15.6112C27.3776 15.6285 27.4982 15.536 27.5155 15.4045Z" fill="#000088"/>
<path d="M31.3334 19.9999L28.5334 19.8399L27.2001 19.9999L28.5334 20.1599L31.3334 19.9999Z" fill="#000088"/>
<path d="M28.676 15.7807C28.7267 15.6582 28.6686 15.5178 28.5461 15.4671C28.4236 15.4164 28.2833 15.4745 28.2325 15.597C28.1818 15.7195 28.24 15.8598 28.3624 15.9106C28.4849 15.9613 28.6253 15.9031 28.676 15.7807Z" fill="#000088"/>
<path d="M31.1743 21.2076L28.5112 20.3284L27.1819 20.1378L28.4283 20.6375L31.1743 21.2076Z" fill="#000088"/>
<path d="M29.6995 16.4447C29.7801 16.3395 29.7603 16.1889 29.6552 16.1082C29.55 16.0275 29.3993 16.0473 29.3186 16.1525C29.238 16.2576 29.2578 16.4083 29.363 16.489C29.4681 16.5697 29.6188 16.5499 29.6995 16.4447Z" fill="#000088"/>
<path d="M30.7081 22.3333L28.3632 20.7947L27.1285 20.2666L28.2032 21.0718L30.7081 22.3333Z" fill="#000088"/>
<path d="M30.5163 17.3508C30.6215 17.2701 30.6413 17.1194 30.5606 17.0143C30.4799 16.9091 30.3293 16.8893 30.2241 16.97C30.1189 17.0507 30.0991 17.2013 30.1798 17.3065C30.2605 17.4117 30.4111 17.4315 30.5163 17.3508Z" fill="#000088"/>
<path d="M29.9666 23.2998L28.0998 21.2068L27.0439 20.3771L27.8735 21.433L29.9666 23.2998Z" fill="#000088"/>
<path d="M31.0708 18.4373C31.1932 18.3866 31.2514 18.2462 31.2007 18.1237C31.1499 18.0013 31.0095 17.9431 30.8871 17.9938C30.7646 18.0446 30.7065 18.185 30.7572 18.3074C30.8079 18.4299 30.9483 18.488 31.0708 18.4373Z" fill="#000088"/>
<path d="M29 24.0413L27.7385 21.5364L26.9333 20.4617L27.4614 21.6964L29 24.0413Z" fill="#000088"/>
<path d="M31.3251 19.6304C31.4565 19.6131 31.5491 19.4925 31.5318 19.3611C31.5145 19.2297 31.3939 19.1372 31.2625 19.1545C31.1311 19.1718 31.0386 19.2923 31.0559 19.4237C31.0732 19.5552 31.1937 19.6477 31.3251 19.6304Z" fill="#000088"/>
<path d="M27.8745 24.5075L27.3043 21.7615L26.8047 20.515L26.9952 21.8443L27.8745 24.5075Z" fill="#000088"/>
</g>
<defs>
<clipPath id="clip0_502_733">
<rect width="53.3333" height="40" fill="white"/>
</clipPath>
</defs>
</svg>
