<svg width="54" height="40" viewBox="0 0 54 40" fill="none" xmlns="http://www.w3.org/2000/svg">
<g clip-path="url(#clip0_502_570)">
<path fill-rule="evenodd" clip-rule="evenodd" d="M-0.00109863 0.00219727H53.3426V40.0022H-0.00109863V0.00219727Z" fill="white"/>
<path fill-rule="evenodd" clip-rule="evenodd" d="M5.84314 12.1514L11.3916 3.83182L12.7782 4.75656L7.22973 13.0761L5.84314 12.1514ZM7.92303 13.5385L13.4715 5.21894L14.8581 6.14368L9.30962 14.4632L7.92303 13.5385ZM10.0029 14.9256L15.5514 6.60605L16.9379 7.53079L11.3895 15.8503L10.0029 14.9256Z" fill="black"/>
<path fill-rule="evenodd" clip-rule="evenodd" d="M36.3481 32.4957L41.8966 24.1762L43.2832 25.1009L37.7347 33.4205L36.3481 32.4957ZM38.428 33.8828L43.9765 25.5633L45.3631 26.488L39.8146 34.8076L38.428 33.8828ZM40.5079 35.27L46.0564 26.9504L47.443 27.8751L41.8945 36.1947L40.5079 35.27Z" fill="black"/>
<path fill-rule="evenodd" clip-rule="evenodd" d="M38.4291 27.8737L45.3621 32.4974Z" fill="black"/>
<path d="M38.4291 27.8737L45.3621 32.4974" stroke="white" stroke-width="0.836045"/>
<path fill-rule="evenodd" clip-rule="evenodd" d="M18.3235 14.465C19.7951 12.2585 22.0829 10.7269 24.6836 10.2073C27.2844 9.68758 29.9851 10.2223 32.1915 11.6939C34.398 13.1654 35.9296 15.4532 36.4492 18.0539C36.9689 20.6547 36.4342 23.3554 34.9626 25.5619L18.3235 14.465Z" fill="#CD2E3A"/>
<path fill-rule="evenodd" clip-rule="evenodd" d="M18.3236 14.4649C16.8521 16.6714 16.3173 19.372 16.837 21.9728C17.3567 24.5735 18.8882 26.8613 21.0947 28.3329C23.3012 29.8044 26.0018 30.3392 28.6026 29.8195C31.2033 29.2998 33.4911 27.7683 34.9627 25.5618C35.6984 24.4585 35.9658 23.1082 35.706 21.8078C35.4461 20.5074 34.6804 19.3635 33.5771 18.6278C32.4739 17.892 31.1236 17.6246 29.8232 17.8845C28.5228 18.1443 27.3789 18.9101 26.6431 20.0133L18.3236 14.4649Z" fill="#0047A0"/>
<path d="M26.6431 20.0133C28.1752 17.7159 27.5549 14.6115 25.2575 13.0793C22.9602 11.5472 19.8557 12.1675 18.3235 14.4649C16.7914 16.7622 17.4117 19.8667 19.7091 21.3989C22.0065 22.931 25.1109 22.3107 26.6431 20.0133Z" fill="#CD2E3A"/>
<path fill-rule="evenodd" clip-rule="evenodd" d="M11.4146 36.1976L5.8661 27.8781L7.2527 26.9533L12.8011 35.2729L11.4146 36.1976ZM13.4944 34.8105L7.94599 26.491L9.33258 25.5662L14.881 33.8858L13.4944 34.8105ZM15.5743 33.4234L10.0259 25.1039L11.4125 24.1791L16.9609 32.4987L15.5743 33.4234Z" fill="black"/>
<path fill-rule="evenodd" clip-rule="evenodd" d="M41.9196 15.8534L36.3711 7.53385L37.7577 6.60911L43.3061 14.9287L41.9196 15.8534ZM43.9994 14.4663L38.451 6.14674L39.8376 5.222L45.386 13.5415L43.9994 14.4663ZM46.0793 13.0792L40.5309 4.75963L41.9175 3.83489L47.4659 12.1544L46.0793 13.0792Z" fill="black"/>
<path fill-rule="evenodd" clip-rule="evenodd" d="M10.3735 30.8821L12.4534 29.495ZM38.452 12.1561L40.8785 10.5378ZM42.9584 9.15067L45.0383 7.76355Z" fill="black"/>
<path d="M10.3735 30.8821L12.4534 29.495M38.452 12.1561L40.8785 10.5378M42.9584 9.15067L45.0383 7.76355" stroke="white" stroke-width="0.836045"/>
</g>
<defs>
<clipPath id="clip0_502_570">
<rect width="53.3333" height="40" fill="white"/>
</clipPath>
</defs>
</svg>
