<svg width="54" height="40" viewBox="0 0 54 40" fill="none" xmlns="http://www.w3.org/2000/svg">
<g clip-path="url(#clip0_502_2)">
<path fill-rule="evenodd" clip-rule="evenodd" d="M0 0H76V3.08333H0V0ZM0 6.15833H76V9.24167H0V6.15833ZM0 12.3083H76V15.3917H0V12.3083ZM0 18.4583H76V21.5417H0V18.4583ZM0 24.625H76V27.6917H0V24.625ZM0 30.7667H76V33.85H0V30.7667ZM0 36.9167H76V40H0V36.9167Z" fill="#BD3D44"/>
<path fill-rule="evenodd" clip-rule="evenodd" d="M-0.00012207 3.08337H75.9999V6.15837H-0.00012207V3.08337ZM-0.00012207 9.23337H75.9999V12.3084H-0.00012207V9.23337ZM-0.00012207 15.3834H75.9999V18.4667H-0.00012207V15.3834ZM-0.00012207 21.5417H75.9999V24.625H-0.00012207V21.5417ZM-0.00012207 27.6917H75.9999V30.775H-0.00012207V27.6917ZM-0.00012207 33.8417H75.9999V36.925H-0.00012207V33.8417Z" fill="white"/>
<path fill-rule="evenodd" clip-rule="evenodd" d="M0 0H30.4V21.5417H0V0Z" fill="#192F5D"/>
<path fill-rule="evenodd" clip-rule="evenodd" d="M2.53303 0.916748L2.81637 1.77508H3.6997L2.98303 2.30008L3.25803 3.15841L2.53303 2.62508L1.81637 3.15008L2.08303 2.30008L1.35803 1.77508H2.26637L2.53303 0.916748ZM7.5997 0.916748L7.8747 1.77508H8.7747L8.0497 2.30008L8.31637 3.15841L7.5997 2.62508L6.8747 3.15008L7.1497 2.30008L6.43303 1.77508H7.31637L7.5997 0.916748ZM12.6664 0.916748L12.9414 1.77508H13.833L13.1164 2.30008L13.3914 3.15841L12.6664 2.62508L11.9414 3.15008L12.2164 2.30008L11.4914 1.77508H12.3914L12.6664 0.916748ZM17.733 0.916748L18.008 1.77508H18.908L18.183 2.30008L18.458 3.15841L17.733 2.62508L17.008 3.15008L17.2914 2.30008L16.558 1.77508H17.4497L17.733 0.916748ZM22.7997 0.916748L23.0747 1.77508H23.9664L23.2497 2.30008L23.5247 3.15841L22.7997 2.62508L22.0747 3.15008L22.3497 2.30008L21.633 1.77508H22.5247L22.7997 0.916748ZM27.8664 0.916748L28.1414 1.77508H29.0414L28.308 2.30008L28.5914 3.15841L27.8664 2.62508L27.1414 3.15008L27.4247 2.30008L26.6914 1.77508H27.5914L27.8664 0.916748ZM5.06637 3.08341L5.34137 3.93341H6.2497L5.5247 4.45008L5.79137 5.30841L5.08303 4.78341L4.35803 5.30841L4.61637 4.45008L3.91637 3.93341H4.80803L5.06637 3.08341ZM10.133 3.08341L10.4164 3.93341H11.308L10.5747 4.45008L10.858 5.30841L10.133 4.78341L9.40803 5.30841L9.68303 4.45008L8.95803 3.93341H9.85803L10.133 3.08341ZM15.1997 3.08341L15.4747 3.93341H16.3747L15.6497 4.45008L15.9247 5.30841L15.1997 4.78341L14.4747 5.30841L14.7497 4.45008L14.033 3.93341H14.9164L15.1997 3.08341ZM20.2664 3.08341L20.5497 3.93341H21.4414L20.708 4.45008L20.9914 5.30841L20.2664 4.78341L19.5497 5.30841L19.8164 4.45008L19.0914 3.93341H19.9997L20.2664 3.08341ZM25.333 3.08341L25.608 3.93341H26.508L25.783 4.45008L26.058 5.30841L25.333 4.78341L24.608 5.30841L24.883 4.45008L24.1664 3.93341H25.058L25.333 3.08341ZM2.53303 5.21675L2.81637 6.08341H3.6997L2.98303 6.60842L3.25803 7.45841L2.53303 6.93341L1.81637 7.45841L2.08303 6.60842L1.35803 6.08341H2.26637L2.53303 5.21675ZM7.5997 5.21675L7.8747 6.08341H8.7747L8.0497 6.60842L8.31637 7.45841L7.5997 6.93341L6.8747 7.45841L7.1497 6.60008L6.43303 6.07508H7.31637L7.5997 5.21675ZM12.6664 5.21675L12.9414 6.07508H13.833L13.1164 6.60008L13.3914 7.45008L12.6664 6.92508L11.9414 7.45008L12.2164 6.59175L11.4914 6.06675H12.3914L12.6664 5.21675ZM17.733 5.21675L18.008 6.07508H18.908L18.183 6.60008L18.458 7.45008L17.733 6.92508L17.008 7.45008L17.2914 6.59175L16.558 6.06675H17.4497L17.733 5.21675ZM22.7997 5.21675L23.0747 6.07508H23.9664L23.2497 6.60008L23.5247 7.45008L22.7997 6.92508L22.0747 7.45008L22.3497 6.59175L21.633 6.06675H22.5247L22.7997 5.21675ZM27.8664 5.21675L28.1414 6.07508H29.0414L28.308 6.60008L28.5914 7.45008L27.8664 6.92508L27.1414 7.45008L27.4247 6.59175L26.6914 6.06675H27.5914L27.8664 5.21675ZM5.06637 7.38341L5.34137 8.23342H6.2497L5.5247 8.75841L5.7997 9.61675L5.0747 9.08341L4.3497 9.60842L4.6247 8.75841L3.90803 8.23342H4.7997L5.06637 7.38341ZM10.133 7.38341L10.4164 8.23342H11.308L10.5747 8.75841L10.858 9.61675L10.133 9.08341L9.40803 9.60842L9.68303 8.75841L8.95803 8.23342H9.85803L10.133 7.38341ZM15.1997 7.38341L15.4747 8.23342H16.3747L15.6497 8.75841L15.9247 9.61675L15.1997 9.08341L14.4747 9.60842L14.7497 8.75841L14.033 8.23342H14.9164L15.1997 7.38341ZM20.2664 7.38341L20.5497 8.23342H21.4414L20.7164 8.75841L20.9914 9.61675L20.2664 9.08341L19.5497 9.60842L19.8164 8.75841L19.0914 8.23342H19.9997L20.2664 7.38341ZM25.333 7.38341L25.608 8.23342H26.508L25.783 8.75841L26.058 9.61675L25.333 9.08341L24.608 9.60842L24.883 8.75841L24.1664 8.23342H25.058L25.333 7.38341ZM2.53303 9.54175L2.81637 10.3917H3.6997L2.98303 10.9167L3.25803 11.7751L2.53303 11.2417L1.81637 11.7667L2.08303 10.9167L1.35803 10.3917H2.26637L2.53303 9.54175ZM7.5997 9.54175L7.8747 10.3917H8.7747L8.0497 10.9167L8.31637 11.7667L7.5997 11.2417L6.8747 11.7667L7.1497 10.9167L6.43303 10.3917H7.31637L7.5997 9.54175ZM12.6664 9.54175L12.9414 10.3917H13.833L13.1164 10.9167L13.3914 11.7751L12.6664 11.2417L11.9414 11.7667L12.2164 10.9167L11.4914 10.3917H12.3914L12.6664 9.54175ZM17.733 9.54175L18.008 10.3917H18.908L18.183 10.9167L18.458 11.7751L17.733 11.2417L17.008 11.7667L17.2914 10.9167L16.558 10.3917H17.4497L17.733 9.54175ZM22.7997 9.54175L23.0747 10.3917H23.9664L23.2497 10.9167L23.5247 11.7751L22.7997 11.2417L22.0747 11.7667L22.3497 10.9167L21.633 10.3917H22.5247L22.7997 9.54175ZM27.8664 9.54175L28.1414 10.3917H29.0414L28.308 10.9167L28.5914 11.7751L27.8664 11.2417L27.1414 11.7667L27.4164 10.9167L26.683 10.3917H27.583L27.8664 9.54175ZM5.06637 11.6917L5.34137 12.5501H6.2497L5.5247 13.0667L5.7997 13.9251L5.0747 13.3917L4.3497 13.9251L4.6247 13.0667L3.90803 12.5417H4.7997L5.06637 11.6917ZM10.133 11.6917L10.4164 12.5501H11.308L10.5747 13.0667L10.858 13.9251L10.133 13.3917L9.40803 13.9251L9.68303 13.0667L8.95803 12.5417H9.85803L10.133 11.6917ZM15.1997 11.6917L15.4747 12.5501H16.3747L15.6497 13.0667L15.9247 13.9251L15.1997 13.3917L14.4747 13.9251L14.7497 13.0667L14.033 12.5417H14.9164L15.1997 11.6917ZM20.2664 11.6917L20.5497 12.5501H21.4414L20.7164 13.0667L20.9914 13.9251L20.2664 13.3917L19.5497 13.9251L19.8164 13.0667L19.0914 12.5417H19.9997L20.2664 11.6917ZM25.333 11.6917L25.608 12.5501H26.508L25.783 13.0667L26.058 13.9251L25.333 13.3917L24.608 13.9251L24.883 13.0667L24.1664 12.5417H25.058L25.333 11.6917ZM2.53303 13.8417L2.81637 14.7001H3.6997L2.98303 15.2251L3.25803 16.0667L2.53303 15.5501L1.81637 16.0667L2.08303 15.2167L1.35803 14.6917H2.26637L2.53303 13.8417ZM7.5997 13.8417L7.8747 14.7001H8.7747L8.0497 15.2251L8.3247 16.0667L7.5997 15.5501L6.8747 16.0667L7.15803 15.2167L6.43303 14.6917H7.31637L7.5997 13.8417ZM12.6664 13.8417L12.9414 14.7001H13.833L13.1164 15.2251L13.3914 16.0667L12.6664 15.5501L11.9414 16.0667L12.2164 15.2167L11.4914 14.6917H12.3914L12.6664 13.8417ZM17.733 13.8417L18.008 14.7001H18.908L18.183 15.2251L18.458 16.0667L17.733 15.5501L17.008 16.0667L17.2914 15.2167L16.558 14.6917H17.4497L17.733 13.8417ZM22.7997 13.8417L23.0747 14.7001H23.9664L23.2497 15.2251L23.5247 16.0667L22.7997 15.5501L22.0747 16.0667L22.3497 15.2167L21.633 14.6917H22.5247L22.7997 13.8417ZM27.8664 13.8417L28.1414 14.7001H29.0414L28.308 15.2251L28.5914 16.0667L27.8664 15.5501L27.1414 16.0667L27.4247 15.2167L26.6914 14.6917H27.5914L27.8664 13.8417ZM5.06637 16.0001L5.34137 16.8501H6.2497L5.5247 17.3751L5.7997 18.2334L5.0747 17.7001L4.3497 18.2251L4.6247 17.3751L3.90803 16.8501H4.7997L5.06637 16.0001ZM10.133 16.0001L10.4164 16.8501H11.308L10.5747 17.3751L10.858 18.2334L10.133 17.7001L9.40803 18.2251L9.68303 17.3751L8.95803 16.8501H9.85803L10.133 16.0001ZM15.1997 16.0001L15.4747 16.8501H16.3747L15.6497 17.3751L15.9247 18.2334L15.1997 17.7001L14.4747 18.2251L14.7497 17.3751L14.033 16.8501H14.9164L15.1997 16.0001ZM20.2664 16.0001L20.5497 16.8501H21.4414L20.7164 17.3751L20.9914 18.2334L20.2664 17.7001L19.5497 18.2251L19.8164 17.3751L19.0914 16.8501H19.9997L20.2664 16.0001ZM25.333 16.0001L25.608 16.8501H26.508L25.783 17.3751L26.058 18.2334L25.333 17.7001L24.608 18.2251L24.883 17.3751L24.1664 16.8501H25.058L25.333 16.0001ZM2.53303 18.1584L2.81637 19.0084H3.6997L2.98303 19.5334L3.25803 20.3834L2.53303 19.8584L1.81637 20.3834L2.08303 19.5251L1.35803 19.0001H2.26637L2.53303 18.1584ZM7.5997 18.1584L7.8747 19.0084H8.7747L8.0497 19.5334L8.3247 20.3834L7.5997 19.8584L6.8747 20.3834L7.15803 19.5251L6.43303 19.0001H7.31637L7.5997 18.1584ZM12.6664 18.1584L12.9414 19.0084H13.833L13.133 19.5334L13.408 20.3834L12.683 19.8584L11.958 20.3834L12.233 19.5251L11.508 19.0001H12.408L12.6664 18.1584ZM17.733 18.1584L18.008 19.0084H18.908L18.183 19.5334L18.458 20.3834L17.733 19.8584L17.008 20.3834L17.2914 19.5251L16.558 19.0001H17.4497L17.733 18.1584ZM22.7997 18.1584L23.0747 19.0084H23.9664L23.2497 19.5334L23.5247 20.3834L22.7997 19.8584L22.0747 20.3834L22.3497 19.5251L21.633 19.0001H22.5247L22.7997 18.1584ZM27.8664 18.1584L28.1414 19.0084H29.0414L28.308 19.5334L28.5914 20.3834L27.8664 19.8584L27.1414 20.3834L27.4247 19.5251L26.6914 19.0001H27.5914L27.8664 18.1584Z" fill="white"/>
</g>
<defs>
<clipPath id="clip0_502_2">
<rect width="53.3333" height="40" fill="white"/>
</clipPath>
</defs>
</svg>
