<svg width="14" height="14" viewBox="0 0 14 14" fill="none" xmlns="http://www.w3.org/2000/svg">
<g clip-path="url(#clip0_2001_392)">
<path d="M7 0.777344C10.4364 0.777344 13.2227 3.56356 13.2227 7C13.2227 10.4364 10.4364 13.2227 7 13.2227C3.56356 13.2227 0.777344 10.4364 0.777344 7C0.777344 3.56356 3.56356 0.777344 7 0.777344ZM7 1.88379C4.17448 1.88379 1.88379 4.17448 1.88379 7C1.8838 9.82551 4.17449 12.1162 7 12.1162C9.8255 12.1162 12.1162 9.8255 12.1162 7C12.1162 4.17449 9.82551 1.8838 7 1.88379ZM7.61719 10.5254H6.38281V6.11914H7.61719V10.5254ZM7.61719 4.79688H6.38281V3.47461H7.61719V4.79688Z" fill="#737373"/>
</g>
<defs>
<clipPath id="clip0_2001_392">
<rect width="14" height="14" fill="white"/>
</clipPath>
</defs>
</svg>
