<svg width="32" height="32" viewBox="0 0 32 32" fill="none" xmlns="http://www.w3.org/2000/svg">
<path d="M30 5.16292C30 4.52121 29.4812 3.99839 28.8396 4.01051C23.5874 4.10976 19.3217 5.08007 16.1875 6.21873C13.4252 7.22233 11.4297 8.50512 10.2164 9.60685C9.27151 10.4648 8.98152 11.756 8.99741 13.0322L9.05001 17.2561L8.9732 25.073C10.0342 21.437 13.8562 18.986 22.5016 17.7972C24.1924 17.5647 26.6389 17.3158 28.8268 17.2526C29.4735 17.2339 30 16.7114 30 16.0644V5.16292Z" fill="url(#paint0_linear_340_809)" fill-opacity="0.95"/>
<path d="M8.9732 25.073C8.9732 29.9379 20.7312 29.9179 22.442 24.6803C22.4846 24.5497 22.5016 24.4109 22.5016 24.2735V17.7972C13.8562 18.986 10.0342 21.437 8.9732 25.073Z" fill="white" fill-opacity="0.67"/>
<path d="M8.99741 13.0322C8.98152 11.756 9.27151 10.4648 10.2164 9.60685C11.4297 8.50512 13.4252 7.22233 16.1875 6.21873C10.246 3.81121 4.89901 3.10605 2.88118 3.01154C2.306 2.9846 2.02642 3.33407 2.02284 3.90987C2.00977 6.0137 1.98158 11.4715 2.01775 14.637C2.02259 15.0612 2.36822 15.4057 2.78867 15.4623C4.95699 15.7541 9.05001 16.9933 9.05001 17.2561L8.99741 13.0322Z" fill="white" fill-opacity="0.67"/>
<defs>
<linearGradient id="paint0_linear_340_809" x1="27.9583" y1="1.22308" x2="6.30604" y2="24.9816" gradientUnits="userSpaceOnUse">
<stop stop-color="#FEFEFE"/>
<stop offset="1" stop-color="white"/>
</linearGradient>
</defs>
</svg>
