<svg width="48" height="48" viewBox="0 0 48 48" fill="none" xmlns="http://www.w3.org/2000/svg">
<g clip-path="url(#clip0_1_19)">
<rect width="48" height="48" fill="#0056D2"/>
<path d="M24.9513 10.3441C17.1378 10.3441 10.9 16.4834 10.9 24.1328C10.9 31.6509 17.1378 37.8886 25.017 37.8558C29.843 37.8886 34.3736 35.3936 37 31.3226L31.1891 27.8755C29.843 30.0094 27.5121 31.2898 24.9842 31.2898C20.9461 31.2898 17.663 27.9411 17.663 24.1C17.663 20.2589 20.9789 16.9102 24.9842 16.9102C27.3808 16.9102 29.6132 18.0592 30.9921 20.029L36.8358 16.6475C34.1766 12.6751 29.7117 10.3113 24.9513 10.3441Z" fill="white"/>
</g>
<defs>
<clipPath id="clip0_1_19">
<rect width="48" height="48" rx="10" fill="white"/>
</clipPath>
</defs>
</svg>
