<svg width="351" height="284" viewBox="0 0 351 284" fill="none" xmlns="http://www.w3.org/2000/svg">
<path d="M350.2 178.5C348.3 202.7 339 243.4 273.1 263.5C229.6 276.6 188.5 270.3 166.1 264.6C165.6 273.5 164.6 277.3 163.2 278.8C161.3 280.7 147.1 288.9 139.3 277.3C135.8 271.8 134 261.8 133 252.9C82.5999 229.7 59.3999 196.3 58.4999 194.8C57.3999 193.7 45.8999 181.7 57.3999 167C68.1999 153.7 103.5 140.4 135.3 135C136.4 107.8 139.6 87.2999 143.4 77.8999C148 66.9999 153.8 76.7999 158.8 84.1999C163 89.6999 165.5 113.4 165.7 132.3C186.5 131.3 198.8 132.8 222 137C252.2 142.5 272.4 157.9 270.6 175.4C269.3 192.6 253.5 199.7 247.5 200.2C241.2 200.7 231.4 196.2 231.4 196.2C224.7 193 230.9 190.2 239 186.7C247.8 182.4 245.8 178 245.8 178C242.5 168.4 203.3 161.7 164.3 161.7C164.1 183.2 165.2 218.9 165.7 239.7C193 244.9 213.4 243.9 213.4 243.9C213.4 243.9 313 241.1 316 177.5C319.1 113.8 216.7 52.6999 141 33.2999C65.3999 13.4999 22.5999 27.2999 18.8999 29.1999C14.8999 31.1999 18.5999 31.7999 18.5999 31.7999C18.5999 31.7999 22.6999 32.3999 29.7999 34.7999C37.2999 37.1999 31.4999 41.0999 31.4999 41.0999C18.5999 45.1999 4.09988 42.5999 1.29988 36.6999C-1.50012 30.7999 3.19989 25.4999 8.59989 17.8999C13.9999 9.89986 19.8999 10.1999 19.8999 10.1999C113.4 -22.2001 227.3 36.3999 227.3 36.3999C334 90.4999 352.2 153.9 350.2 178.5ZM67.9999 175.2C57.3999 180.4 64.6999 187.9 64.6999 187.9C84.5999 209.3 109.1 222.7 132.4 231C135.1 194.1 134.7 181.1 135 162.5C98.5999 165 77.5999 170.8 67.9999 175.2Z" fill="#3537FF"/>
</svg>
