<svg width="20" height="20" viewBox="0 0 20 20" fill="none" xmlns="http://www.w3.org/2000/svg">
<g clip-path="url(#clip0_1589_3332)">
<path d="M9.99996 1.66675C5.39746 1.66675 1.66663 5.39758 1.66663 10.0001C1.66663 14.1592 4.71413 17.6067 8.69829 18.2326V12.4084H6.58163V10.0001H8.69829V8.16425C8.69829 6.07591 9.94163 4.92258 11.8458 4.92258C12.7575 4.92258 13.7108 5.08508 13.7108 5.08508V7.13508H12.6608C11.625 7.13508 11.3025 7.77758 11.3025 8.43675V10.0001H13.6133L13.2441 12.4084H11.3025V18.2326C15.2858 17.6076 18.3333 14.1584 18.3333 10.0001C18.3333 5.39758 14.6025 1.66675 9.99996 1.66675Z" fill="black"/>
</g>
<defs>
<clipPath id="clip0_1589_3332">
<rect width="20" height="20" fill="white"/>
</clipPath>
</defs>
</svg>
