<svg width="375" height="267" viewBox="0 0 375 267" fill="none" xmlns="http://www.w3.org/2000/svg">
<g clip-path="url(#clip0_2115_9591)">
<path d="M157.65 0C130.367 0 102.651 12.1327 67.1348 39.416V6.93359H0V266.768H71.4668V105.234C102.65 80.5511 116.933 72.75 128.633 72.75C142.483 72.75 151.584 81.4164 151.584 103.066V266.768H223.033V104.801C254.217 80.5508 268.085 72.75 280.201 72.75C294.068 72.75 303.15 81.4164 303.15 103.066V266.768H374.602V77.9512C374.602 19.4845 341.251 0 309.201 0C281.918 0 254.2 11.2658 217.816 38.9824C206.15 9.9491 180.6 0 157.65 0Z" fill="#002BE7"/>
</g>
<defs>
<clipPath id="clip0_2115_9591">
<rect width="375" height="267" fill="white"/>
</clipPath>
</defs>
</svg>
