<svg width="51" height="47" viewBox="0 0 51 47" fill="none" xmlns="http://www.w3.org/2000/svg">
<path d="M50.9317 3.50896C50.9317 2.57701 50.1778 1.81821 49.246 1.83115C39.4972 1.96651 31.5923 3.753 25.807 5.85484C20.3676 7.83103 16.563 10.4024 14.4282 12.5068C13.1082 13.808 12.6963 15.6823 12.7194 17.5357L12.8239 25.9317L12.6842 40.1506C14.6141 33.5368 21.5664 29.0785 37.2922 26.9159C40.479 26.4777 45.1418 26.0075 49.2278 25.9142C50.1671 25.8927 50.9317 25.1339 50.9317 24.1943V3.50896Z" fill="url(#paint0_linear_2066_4328)" fill-opacity="0.95"/>
<path d="M12.6842 40.1506C12.6842 49.0221 34.1803 48.9632 37.207 39.3638C37.267 39.1734 37.2922 38.9719 37.2922 38.7723V26.9159C21.5664 29.0785 14.6141 33.5368 12.6842 40.1506Z" fill="white" fill-opacity="0.67"/>
<path d="M12.7194 17.5357C12.6963 15.6823 13.1082 13.808 14.4282 12.5068C16.563 10.4024 20.3676 7.83103 25.807 5.85484C14.6735 1.34353 4.6877 0.118367 1.28749 0.00841174C0.451685 -0.0186165 0.0489028 0.49753 0.0435757 1.33376C0.0205228 4.95251 -0.0372742 15.5773 0.0356667 21.452C0.0433158 22.0681 0.545072 22.5611 1.15692 22.6335C5.01723 23.0905 12.8239 25.4423 12.8239 25.9317L12.7194 17.5357Z" fill="white" fill-opacity="0.67"/>
<defs>
<linearGradient id="paint0_linear_2066_4328" x1="47.218" y1="-3.23221" x2="7.83263" y2="39.9843" gradientUnits="userSpaceOnUse">
<stop stop-color="#FEFEFE"/>
<stop offset="1" stop-color="white"/>
</linearGradient>
</defs>
</svg>
