<svg width="40" height="40" viewBox="0 0 40 40" fill="none" xmlns="http://www.w3.org/2000/svg">
<rect width="40" height="40" rx="20" fill="#F1F1F1"/>
<path d="M31.7388 20.753C31.7388 19.9291 31.6591 19.0786 31.5262 18.2812H20.0178V22.9856H26.6092C26.3434 24.5006 25.4664 25.8295 24.164 26.68L28.0976 29.7365C30.4099 27.5836 31.7388 24.4474 31.7388 20.753Z" fill="#4280EF"/>
<path d="M20.0199 32.6601C23.3156 32.6601 26.0797 31.5704 28.0996 29.7099L24.1661 26.68C23.0764 27.4242 21.6677 27.8495 20.0199 27.8495C16.8305 27.8495 14.1461 25.6966 13.1627 22.8262L9.1228 25.9358C11.1959 30.0554 15.3953 32.6601 20.0199 32.6601Z" fill="#34A353"/>
<path d="M13.1616 22.7993C12.6566 21.2844 12.6566 19.6365 13.1616 18.1216L9.12174 14.9854C7.39415 18.4405 7.39415 22.507 9.12174 25.9356L13.1616 22.7993Z" fill="#F6B704"/>
<path d="M20.0199 13.0984C21.7475 13.0719 23.4485 13.7363 24.6976 14.9323L28.1794 11.424C25.9734 9.35091 23.0498 8.23463 20.0199 8.26121C15.3953 8.26121 11.1959 10.8659 9.1228 14.9855L13.1627 18.1217C14.1461 15.2247 16.8305 13.0984 20.0199 13.0984Z" fill="#E54335"/>
</svg>
