<svg width="40" height="40" viewBox="0 0 40 40" fill="none" xmlns="http://www.w3.org/2000/svg">
<rect width="40" height="40" rx="20" fill="#F4F4F4"/>
<path d="M27.4 23.7501C27.2333 23.5834 27.1417 23.3751 27.125 23.1251C27.1083 22.8751 27.1833 22.6584 27.35 22.4751C27.9667 21.7251 28.4375 20.9459 28.7625 20.1376C29.0875 19.3292 29.25 18.3584 29.25 17.2251C29.25 16.0917 29.0875 15.1209 28.7625 14.3126C28.4375 13.5042 27.9667 12.7251 27.35 11.9751C27.1833 11.7917 27.1042 11.5792 27.1125 11.3376C27.1208 11.0959 27.2167 10.8834 27.4 10.7001C27.5833 10.5167 27.7917 10.4292 28.025 10.4376C28.2583 10.4459 28.45 10.5417 28.6 10.7251C29.35 11.6251 29.9375 12.5959 30.3625 13.6376C30.7875 14.6792 31 15.8751 31 17.2251C31 18.5751 30.7875 19.7709 30.3625 20.8126C29.9375 21.8542 29.35 22.8251 28.6 23.7251C28.45 23.9084 28.2583 24.0042 28.025 24.0126C27.7917 24.0209 27.5833 23.9334 27.4 23.7501V23.7501ZM23.875 20.1501C23.725 20.0001 23.6375 19.8126 23.6125 19.5876C23.5875 19.3626 23.6417 19.1501 23.775 18.9501C23.925 18.7001 24.0417 18.4334 24.125 18.1501C24.2083 17.8667 24.25 17.5584 24.25 17.2251C24.25 16.8917 24.2083 16.5834 24.125 16.3001C24.0417 16.0167 23.925 15.7501 23.775 15.5001C23.6417 15.3001 23.5875 15.0876 23.6125 14.8626C23.6375 14.6376 23.725 14.4501 23.875 14.3001C24.0583 14.1167 24.2833 14.0292 24.55 14.0376C24.8167 14.0459 25.0167 14.1584 25.15 14.3751C25.4167 14.7917 25.625 15.2417 25.775 15.7251C25.925 16.2084 26 16.7084 26 17.2251C26 17.7417 25.925 18.2417 25.775 18.7251C25.625 19.2084 25.4167 19.6584 25.15 20.0751C25.0167 20.2917 24.8167 20.4042 24.55 20.4126C24.2833 20.4209 24.0583 20.3334 23.875 20.1501V20.1501ZM17 20.9751C15.9 20.9751 15 20.6251 14.3 19.9251C13.6 19.2251 13.25 18.3251 13.25 17.2251C13.25 16.1251 13.6 15.2251 14.3 14.5251C15 13.8251 15.9 13.4751 17 13.4751C18.1 13.4751 19 13.8251 19.7 14.5251C20.4 15.2251 20.75 16.1251 20.75 17.2251C20.75 18.3251 20.4 19.2251 19.7 19.9251C19 20.6251 18.1 20.9751 17 20.9751V20.9751ZM9.75 29.0001C9.53333 29.0001 9.35417 28.9292 9.2125 28.7876C9.07083 28.6459 9 28.4667 9 28.2501V26.6501C9 26.0167 9.15833 25.4792 9.475 25.0376C9.79167 24.5959 10.2 24.2501 10.7 24.0001C11.55 23.5667 12.5542 23.2084 13.7125 22.9251C14.8708 22.6417 15.9667 22.5001 17 22.5001C18.0333 22.5001 19.125 22.6417 20.275 22.9251C21.425 23.2084 22.425 23.5667 23.275 24.0001C23.775 24.2501 24.1875 24.5959 24.5125 25.0376C24.8375 25.4792 25 26.0167 25 26.6501V28.2501C25 28.4667 24.9292 28.6459 24.7875 28.7876C24.6458 28.9292 24.4667 29.0001 24.25 29.0001H9.75Z" fill="black"/>
</svg>
