<svg width="40" height="40" viewBox="0 0 40 40" fill="none" xmlns="http://www.w3.org/2000/svg">
<rect width="40" height="40" rx="20" fill="#F1F1F1"/>
<g clip-path="url(#clip0_790_2238)">
<path d="M9.073 14.4955V24.9219C9.073 25.4635 9.35701 25.96 9.82039 26.2308L18.7891 31.4365C19.2525 31.7073 19.8205 31.7073 20.2839 31.4365L29.2526 26.2308C29.716 25.96 30 25.4635 30 24.9219V14.4955C30 13.9539 29.716 13.4574 29.2526 13.1866L20.2839 7.98094C19.8205 7.71013 19.2525 7.71013 18.7891 7.98094L9.82039 13.2017C9.35701 13.4724 9.073 13.9689 9.073 14.4955Z" fill="#0F2B46"/>
<path d="M23.2735 34.0396L23.2586 31.7828L23.2735 29.7065L18.0417 31.0004" fill="#0F2B46"/>
<path d="M23.0342 29.5263L24.0208 29.2705L23.647 29.4811C23.4228 29.6165 23.2733 29.8573 23.2733 30.1281V30.5494L23.0342 29.5263Z" fill="#142C46"/>
<path d="M15.9186 14.962C16.5165 14.3753 17.4732 14.3753 18.0711 14.962C18.7138 15.5789 18.7138 16.602 18.0711 17.2188C17.4732 17.8056 16.5165 17.8056 15.9186 17.2188C15.2758 16.602 15.2758 15.5789 15.9186 14.962Z" fill="white"/>
<path d="M22.645 18.8893C23.2429 18.3025 24.1996 18.3025 24.7975 18.8893C25.4403 19.5062 25.4403 20.5292 24.7975 21.1461C24.1996 21.7329 23.2429 21.7329 22.645 21.1461C22.0023 20.5292 22.0023 19.5062 22.645 18.8893Z" fill="white"/>
<path d="M15.9186 23.0416C16.5165 22.4549 17.4732 22.4549 18.0711 23.0416C18.7138 23.6585 18.7138 24.6816 18.0711 25.2984C17.4732 25.8852 16.5165 25.8852 15.9186 25.2984C15.2758 24.6816 15.2758 23.6585 15.9186 23.0416Z" fill="white"/>
<path d="M17.7424 16.9329L22.2268 19.5357L22.9742 19.1145L18.4898 16.4966L17.7424 16.9329Z" fill="white"/>
<path d="M22.5258 21.4462L18.4898 23.7932L17.7424 23.3569L21.7784 21.0249L22.5258 21.4462Z" fill="white"/>
</g>
<defs>
<clipPath id="clip0_790_2238">
<rect width="21" height="26.4444" fill="white" transform="translate(9 7.77783)"/>
</clipPath>
</defs>
</svg>
