<svg width="122" height="33" viewBox="0 0 122 33" fill="none" xmlns="http://www.w3.org/2000/svg">
<path d="M35 2.70365C35 1.90151 34.3515 1.24799 33.5495 1.26314C26.9842 1.3872 21.6521 2.60008 17.7344 4.02341C14.2815 5.27791 11.7872 6.88141 10.2705 8.25857C9.08939 9.33106 8.7269 10.945 8.74676 12.5403L8.81251 17.8201L8.7165 27.5913C10.0427 23.0463 14.8203 19.9825 25.627 18.4965C27.7405 18.2058 30.7986 17.8947 33.5335 17.8157C34.3418 17.7924 35 17.1392 35 16.3305V2.70365Z" fill="url(#paint0_linear_325_1214)" fill-opacity="0.95"/>
<path d="M8.7165 27.5913C8.7165 33.6723 23.414 33.6474 25.5525 27.1004C25.6058 26.9371 25.627 26.7637 25.627 26.5919V18.4965C14.8203 19.9825 10.0427 23.0463 8.7165 27.5913Z" fill="white" fill-opacity="0.67"/>
<path d="M8.74676 12.5403C8.7269 10.945 9.08939 9.33106 10.2705 8.25857C11.7872 6.88141 14.2815 5.27791 17.7344 4.02341C10.3075 1.01401 3.62375 0.132563 1.10147 0.0144227C0.382496 -0.0192532 0.0330283 0.417586 0.0285559 1.13734C0.012215 3.76712 -0.0230263 10.5894 0.0221816 14.5462C0.02824 15.0765 0.460279 15.5071 0.985837 15.5778C3.69624 15.9427 8.81251 17.4917 8.81251 17.8201L8.74676 12.5403Z" fill="white" fill-opacity="0.67"/>
<path d="M49.3745 24C49.2145 24 49.0785 23.944 48.9665 23.832C48.8545 23.72 48.7985 23.584 48.7985 23.424V10.152H44.3585C44.1985 10.152 44.0625 10.096 43.9505 9.984C43.8385 9.872 43.7825 9.736 43.7825 9.576V7.8C43.7825 7.624 43.8385 7.48 43.9505 7.368C44.0625 7.256 44.1985 7.2 44.3585 7.2H56.5985C56.7745 7.2 56.9185 7.256 57.0305 7.368C57.1425 7.48 57.1985 7.624 57.1985 7.8V9.576C57.1985 9.736 57.1425 9.872 57.0305 9.984C56.9185 10.096 56.7745 10.152 56.5985 10.152H52.1825V23.424C52.1825 23.584 52.1265 23.72 52.0145 23.832C51.9025 23.944 51.7585 24 51.5825 24H49.3745ZM58.328 24C58.168 24 58.032 23.944 57.92 23.832C57.808 23.72 57.752 23.584 57.752 23.424V12.12C57.752 11.944 57.808 11.8 57.92 11.688C58.032 11.576 58.168 11.52 58.328 11.52H60.272C60.432 11.52 60.568 11.576 60.68 11.688C60.808 11.8 60.872 11.944 60.872 12.12V13.104C61.24 12.592 61.712 12.2 62.288 11.928C62.88 11.656 63.56 11.52 64.328 11.52H65.312C65.488 11.52 65.624 11.576 65.72 11.688C65.832 11.8 65.888 11.936 65.888 12.096V13.824C65.888 13.984 65.832 14.12 65.72 14.232C65.624 14.344 65.488 14.4 65.312 14.4H63.44C62.672 14.4 62.072 14.616 61.64 15.048C61.224 15.48 61.016 16.072 61.016 16.824V23.424C61.016 23.584 60.96 23.72 60.848 23.832C60.736 23.944 60.592 24 60.416 24H58.328ZM71.1963 24.24C70.3643 24.24 69.6123 24.08 68.9403 23.76C68.2683 23.424 67.7323 22.984 67.3323 22.44C66.9483 21.88 66.7563 21.256 66.7563 20.568C66.7563 19.448 67.2043 18.56 68.1003 17.904C69.0123 17.232 70.2123 16.784 71.7003 16.56L74.9883 16.08V15.576C74.9883 14.904 74.8203 14.384 74.4843 14.016C74.1483 13.648 73.5723 13.464 72.7563 13.464C72.1803 13.464 71.7083 13.584 71.3403 13.824C70.9883 14.048 70.7243 14.352 70.5483 14.736C70.4203 14.944 70.2363 15.048 69.9963 15.048H68.1003C67.9243 15.048 67.7883 15 67.6923 14.904C67.6123 14.808 67.5723 14.68 67.5723 14.52C67.5883 14.264 67.6923 13.952 67.8843 13.584C68.0763 13.216 68.3803 12.864 68.7963 12.528C69.2123 12.176 69.7483 11.88 70.4043 11.64C71.0603 11.4 71.8523 11.28 72.7803 11.28C73.7883 11.28 74.6363 11.408 75.3243 11.664C76.0283 11.904 76.5883 12.232 77.0043 12.648C77.4203 13.064 77.7243 13.552 77.9163 14.112C78.1083 14.672 78.2043 15.264 78.2043 15.888V23.424C78.2043 23.584 78.1483 23.72 78.0363 23.832C77.9243 23.944 77.7883 24 77.6283 24H75.6843C75.5083 24 75.3643 23.944 75.2523 23.832C75.1563 23.72 75.1083 23.584 75.1083 23.424V22.488C74.9003 22.792 74.6203 23.08 74.2683 23.352C73.9163 23.608 73.4843 23.824 72.9723 24C72.4763 24.16 71.8843 24.24 71.1963 24.24ZM72.0123 21.96C72.5723 21.96 73.0763 21.84 73.5243 21.6C73.9883 21.36 74.3483 20.992 74.6043 20.496C74.8763 19.984 75.0123 19.344 75.0123 18.576V18.072L72.6123 18.456C71.6683 18.6 70.9643 18.832 70.5003 19.152C70.0363 19.472 69.8043 19.864 69.8043 20.328C69.8043 20.68 69.9083 20.984 70.1163 21.24C70.3403 21.48 70.6203 21.664 70.9563 21.792C71.2923 21.904 71.6443 21.96 72.0123 21.96ZM81.8592 24C81.6992 24 81.5632 23.944 81.4512 23.832C81.3392 23.72 81.2832 23.584 81.2832 23.424V12.096C81.2832 11.936 81.3392 11.8 81.4512 11.688C81.5632 11.576 81.6992 11.52 81.8592 11.52H83.8272C83.9872 11.52 84.1232 11.576 84.2352 11.688C84.3472 11.8 84.4032 11.936 84.4032 12.096V13.08C84.8192 12.568 85.3472 12.144 85.9872 11.808C86.6432 11.456 87.4512 11.28 88.4112 11.28C89.3872 11.28 90.2352 11.504 90.9552 11.952C91.6752 12.384 92.2272 13 92.6112 13.8C93.0112 14.6 93.2112 15.56 93.2112 16.68V23.424C93.2112 23.584 93.1552 23.72 93.0432 23.832C92.9312 23.944 92.7952 24 92.6352 24H90.5232C90.3632 24 90.2272 23.944 90.1152 23.832C90.0032 23.72 89.9472 23.584 89.9472 23.424V16.824C89.9472 15.896 89.7152 15.168 89.2512 14.64C88.8032 14.112 88.1472 13.848 87.2832 13.848C86.4512 13.848 85.7872 14.112 85.2912 14.64C84.7952 15.168 84.5472 15.896 84.5472 16.824V23.424C84.5472 23.584 84.4912 23.72 84.3792 23.832C84.2672 23.944 84.1312 24 83.9712 24H81.8592ZM101.66 24.24C100.508 24.24 99.4918 24.024 98.6118 23.592C97.7478 23.16 97.0678 22.536 96.5718 21.72C96.0918 20.888 95.8278 19.888 95.7798 18.72C95.7638 18.48 95.7558 18.168 95.7558 17.784C95.7558 17.384 95.7638 17.056 95.7798 16.8C95.8278 15.632 96.0918 14.64 96.5718 13.824C97.0678 12.992 97.7478 12.36 98.6118 11.928C99.4918 11.496 100.508 11.28 101.66 11.28C102.684 11.28 103.556 11.424 104.276 11.712C104.996 12 105.588 12.36 106.052 12.792C106.516 13.224 106.86 13.68 107.084 14.16C107.324 14.624 107.452 15.048 107.468 15.432C107.484 15.608 107.428 15.752 107.3 15.864C107.188 15.96 107.052 16.008 106.892 16.008H104.78C104.62 16.008 104.492 15.968 104.396 15.888C104.316 15.808 104.236 15.688 104.156 15.528C103.916 14.888 103.596 14.44 103.196 14.184C102.812 13.912 102.316 13.776 101.708 13.776C100.908 13.776 100.268 14.032 99.7878 14.544C99.3238 15.04 99.0758 15.832 99.0438 16.92C99.0118 17.528 99.0118 18.088 99.0438 18.6C99.0758 19.704 99.3238 20.504 99.7878 21C100.268 21.496 100.908 21.744 101.708 21.744C102.332 21.744 102.836 21.616 103.22 21.36C103.604 21.088 103.916 20.632 104.156 19.992C104.236 19.832 104.316 19.712 104.396 19.632C104.492 19.552 104.62 19.512 104.78 19.512H106.892C107.052 19.512 107.188 19.568 107.3 19.68C107.428 19.776 107.484 19.912 107.468 20.088C107.452 20.376 107.372 20.704 107.228 21.072C107.1 21.424 106.884 21.792 106.58 22.176C106.292 22.544 105.924 22.888 105.476 23.208C105.028 23.512 104.484 23.76 103.844 23.952C103.22 24.144 102.492 24.24 101.66 24.24ZM111.828 28.56C111.7 28.56 111.588 28.512 111.492 28.416C111.396 28.32 111.348 28.208 111.348 28.08C111.348 28.016 111.348 27.952 111.348 27.888C111.364 27.84 111.396 27.776 111.444 27.696L113.316 23.256L108.708 12.384C108.644 12.224 108.612 12.112 108.612 12.048C108.628 11.904 108.684 11.784 108.78 11.688C108.876 11.576 108.996 11.52 109.14 11.52H111.084C111.276 11.52 111.42 11.568 111.516 11.664C111.612 11.76 111.684 11.864 111.732 11.976L114.924 19.824L118.212 11.976C118.26 11.848 118.332 11.744 118.428 11.664C118.524 11.568 118.668 11.52 118.86 11.52H120.78C120.908 11.52 121.02 11.568 121.116 11.664C121.228 11.76 121.284 11.872 121.284 12C121.284 12.096 121.252 12.224 121.188 12.384L114.396 28.104C114.332 28.232 114.252 28.336 114.156 28.416C114.06 28.512 113.916 28.56 113.724 28.56H111.828Z" fill="white" fill-opacity="0.8"/>
<defs>
<linearGradient id="paint0_linear_325_1214" x1="32.4479" y1="-2.22115" x2="5.38255" y2="27.477" gradientUnits="userSpaceOnUse">
<stop stop-color="#FEFEFE"/>
<stop offset="1" stop-color="white"/>
</linearGradient>
</defs>
</svg>
