<svg width="56" height="56" viewBox="0 0 56 56" fill="none" xmlns="http://www.w3.org/2000/svg">
<rect width="56" height="56" rx="11.3867" fill="#5D2BE6"/>
<path d="M42.9687 15.7101C42.9687 15.0011 42.3955 14.4234 41.6866 14.4368C35.8834 14.5465 31.1702 15.6186 27.7072 16.8767C24.655 17.9856 22.4503 19.403 21.1096 20.6203C20.0656 21.5683 19.7452 22.9949 19.7628 24.405L19.8209 29.072L19.736 37.709C20.9083 33.6916 25.1313 30.9835 34.6837 29.6699C36.5518 29.413 39.255 29.138 41.6725 29.0681C42.387 29.0475 42.9687 28.4701 42.9687 27.7553V15.7101Z" fill="url(#paint0_linear_810_1915)" fill-opacity="0.95"/>
<path d="M19.736 37.709C19.736 43.0842 32.7275 43.0622 34.6178 37.2751C34.6649 37.1308 34.6837 36.9775 34.6837 36.8256V29.6699C25.1313 30.9835 20.9083 33.6916 19.736 37.709Z" fill="white" fill-opacity="0.67"/>
<path d="M19.7628 24.405C19.7452 22.9949 20.0656 21.5683 21.1096 20.6203C22.4503 19.403 24.655 17.9856 27.7072 16.8767C21.1423 14.2166 15.2344 13.4375 13.0049 13.3331C12.3693 13.3033 12.0604 13.6894 12.0565 14.3256C12.042 16.6502 12.0109 22.6806 12.0509 26.1781C12.0562 26.6468 12.4381 27.0275 12.9027 27.09C15.2985 27.4125 19.8209 28.7817 19.8209 29.072L19.7628 24.405Z" fill="white" fill-opacity="0.67"/>
<defs>
<linearGradient id="paint0_linear_810_1915" x1="40.7129" y1="11.357" x2="16.789" y2="37.608" gradientUnits="userSpaceOnUse">
<stop stop-color="#FEFEFE"/>
<stop offset="1" stop-color="white"/>
</linearGradient>
</defs>
</svg>
